<?xml version="1.0" encoding="UTF-8" standalone="no"?>
<!-- Created with Inkscape (http://www.inkscape.org/) -->

<svg
   xmlns:dc="http://purl.org/dc/elements/1.1/"
   xmlns:cc="http://creativecommons.org/ns#"
   xmlns:rdf="http://www.w3.org/1999/02/22-rdf-syntax-ns#"
   xmlns:svg="http://www.w3.org/2000/svg"
   xmlns="http://www.w3.org/2000/svg"
   xmlns:sodipodi="http://sodipodi.sourceforge.net/DTD/sodipodi-0.dtd"
   xmlns:inkscape="http://www.inkscape.org/namespaces/inkscape"
   width="600"
   height="600"
   viewBox="0 0 600.00001 600.00001"
   id="svg4171"
   version="1.1"
   inkscape:version="0.91 r13725"
   sodipodi:docname="hex-bg-alt.svg">
  <defs
     id="defs4173" />
  <sodipodi:namedview
     id="base"
     pagecolor="#ffffff"
     bordercolor="#666666"
     borderopacity="1.0"
     inkscape:pageopacity="1"
     inkscape:pageshadow="2"
     inkscape:zoom="1.3666667"
     inkscape:cx="8.0487816"
     inkscape:cy="92.268142"
     inkscape:document-units="px"
     inkscape:current-layer="flowRoot4740"
     showgrid="false"
     units="px"
     borderlayer="false"
     inkscape:window-width="1918"
     inkscape:window-height="1000"
     inkscape:window-x="0"
     inkscape:window-y="25"
     inkscape:window-maximized="1" />
  <metadata
     id="metadata4176">
    <rdf:RDF>
      <cc:Work
         rdf:about="">
        <dc:format>image/svg+xml</dc:format>
        <dc:type
           rdf:resource="http://purl.org/dc/dcmitype/StillImage" />
        <dc:title />
      </cc:Work>
    </rdf:RDF>
  </metadata>
  <g
     inkscape:label="Layer 1"
     inkscape:groupmode="layer"
     id="layer1"
     transform="translate(0,-452.36216)">
    <path
       sodipodi:type="star"
       style="fill:none;fill-opacity:1;stroke:#000000;stroke-width:20;stroke-miterlimit:4;stroke-dasharray:none;stroke-opacity:0.13559325"
       id="path4179"
       sodipodi:sides="6"
       sodipodi:cx="368.7805"
       sodipodi:cy="927.97193"
       sodipodi:r1="299.64734"
       sodipodi:r2="263.23318"
       sodipodi:arg1="0.31788957"
       sodipodi:arg2="0.84148835"
       inkscape:flatsided="true"
       inkscape:rounded="0"
       inkscape:randomized="0"
       d="M 653.41465,1021.6305 429.98689,1221.3016 145.35273,1127.6431 84.146327,834.31338 307.57408,634.64224 592.20824,728.30078 Z" />
    <text
       xml:space="preserve"
       style="font-style:normal;font-weight:normal;font-size:40px;line-height:125%;font-family:sans-serif;letter-spacing:0px;word-spacing:0px;fill:#000000;fill-opacity:1;stroke:none;stroke-width:1px;stroke-linecap:butt;stroke-linejoin:miter;stroke-opacity:1"
       x="703.90247"
       y="725.289"
       id="text4750"
       sodipodi:linespacing="125%"><tspan
         sodipodi:role="line"
         id="tspan4752"
         x="703.90247"
         y="725.289" /></text>
    <g
       transform="matrix(0.97983236,-0.19982131,0.19982131,0.97983236,-104.72202,489.29624)"
       style="font-style:normal;font-weight:normal;font-size:40px;line-height:125%;font-family:sans-serif;text-align:center;letter-spacing:0px;word-spacing:0px;text-anchor:middle;fill:#000000;fill-opacity:0.1372549;stroke:none;stroke-width:1px;stroke-linecap:butt;stroke-linejoin:miter;stroke-opacity:0.1372549"
       id="flowRoot4740">
      <g
         id="g3383"
         transform="translate(-3.39945,74.384263)">
        <path
           id="path6047"
           style="font-weight:bold;text-align:center;text-anchor:middle;fill:#000000;fill-opacity:0.1372549;stroke:none;stroke-opacity:0.1372549"
           d="m 271.59277,446.3895 q 1.77735,0 2.69532,-0.78125 0.91796,-0.78125 0.91796,-2.30469 0,-1.50391 -0.91796,-2.28516 -0.91797,-0.80078 -2.69532,-0.80078 l -4.16015,0 0,6.17188 4.16015,0 z m 0.25391,12.7539 q 2.26562,0 3.39844,-0.95703 1.15234,-0.95703 1.15234,-2.89062 0,-1.89453 -1.13281,-2.83203 -1.13281,-0.95703 -3.41797,-0.95703 l -4.41406,0 0,7.63671 4.41406,0 z m 6.99219,-10.48828 q 2.42187,0.70313 3.75,2.59766 1.32812,1.89453 1.32812,4.64844 0,4.21875 -2.85156,6.28906 -2.85156,2.07031 -8.67188,2.07031 l -12.48046,0 0,-29.16015 11.28906,0 q 6.07422,0 8.78906,1.83593 2.73438,1.83594 2.73438,5.87891 0,2.12891 -0.9961,3.63281 -0.99609,1.48438 -2.89062,2.20703 z"
           inkscape:connector-curvature="0" />
        <path
           id="path6049"
           style="font-weight:bold;text-align:center;text-anchor:middle;fill:#000000;fill-opacity:0.1372549;stroke:none;stroke-opacity:0.1372549"
           d="m 290.38184,435.10044 7.51953,0 0,29.16015 -7.51953,0 0,-29.16015 z"
           inkscape:connector-curvature="0" />
        <path
           id="path6051"
           style="font-weight:bold;text-align:center;text-anchor:middle;fill:#000000;fill-opacity:0.1372549;stroke:none;stroke-opacity:0.1372549"
           d="m 331.51465,462.09262 q -2.8125,1.36719 -5.83985,2.05078 -3.02734,0.6836 -6.25,0.6836 -7.28515,0 -11.54296,-4.0625 -4.25782,-4.08203 -4.25782,-11.05469 0,-7.05078 4.33594,-11.09375 4.33594,-4.04297 11.875,-4.04297 2.91016,0 5.56641,0.54688 2.67578,0.54687 5.03906,1.62109 l 0,6.03516 q -2.44141,-1.38672 -4.86328,-2.07032 -2.40235,-0.68359 -4.82422,-0.68359 -4.49219,0 -6.93359,2.51953 -2.42188,2.5 -2.42188,7.16797 0,4.62891 2.34375,7.14844 2.34375,2.51953 6.66016,2.51953 1.17187,0 2.16797,-0.13672 1.01562,-0.15625 1.8164,-0.46875 l 0,-5.66406 -4.58984,0 0,-5.03906 11.71875,0 0,14.02343 z"
           inkscape:connector-curvature="0" />
        <path
           id="path6053"
           d="m 342.31543,450.33481 0,10.68359 6.32812,0 q 3.1836,0 4.70704,-1.30859 1.54296,-1.32812 1.54296,-4.04297 0,-2.73437 -1.54296,-4.02344 -1.52344,-1.30859 -4.70704,-1.30859 l -6.32812,0 z m 0,-11.99219 0,8.78907 5.83984,0 q 2.89063,0 4.29688,-1.07422 1.42578,-1.09375 1.42578,-3.32032 0,-2.20703 -1.42578,-3.30078 -1.40625,-1.09375 -4.29688,-1.09375 l -5.83984,0 z m -3.94531,-3.24218 10.07812,0 q 4.51172,0 6.95313,1.875 2.4414,1.875 2.4414,5.33203 0,2.67578 -1.25,4.25781 -1.25,1.58203 -3.67187,1.97266 2.91015,0.625 4.51172,2.61718 1.62109,1.97266 1.62109,4.94141 0,3.90625 -2.65625,6.03516 -2.65625,2.1289 -7.55859,2.1289 l -10.46875,0 0,-29.16015 z"
           inkscape:connector-curvature="0" />
        <path
           id="path6055"
           d="m 376.9248,437.77622 q -4.29687,0 -6.83593,3.20312 -2.51953,3.20313 -2.51953,8.73047 0,5.50781 2.51953,8.71094 2.53906,3.20312 6.83593,3.20312 4.29688,0 6.79688,-3.20312 2.51953,-3.20313 2.51953,-8.71094 0,-5.52734 -2.51953,-8.73047 -2.5,-3.20312 -6.79688,-3.20312 z m 0,-3.20313 q 6.13282,0 9.80469,4.1211 3.67188,4.10156 3.67188,11.01562 0,6.89453 -3.67188,11.01563 -3.67187,4.10156 -9.80469,4.10156 -6.15234,0 -9.84375,-4.10156 -3.67187,-4.10157 -3.67187,-11.01563 0,-6.91406 3.67187,-11.01562 3.69141,-4.1211 9.84375,-4.1211 z"
           inkscape:connector-curvature="0" />
        <path
           id="path6057"
           d="m 405.61621,438.98715 -5.35156,14.51172 10.72265,0 -5.37109,-14.51172 z m -2.22656,-3.88671 4.47265,0 11.11329,29.16015 -4.10157,0 -2.65625,-7.48047 -13.14453,0 -2.65625,7.48047 -4.16015,0 11.13281,-29.16015 z"
           inkscape:connector-curvature="0" />
        <path
           id="path6059"
           d="m 437.04199,450.58872 q 1.26953,0.42968 2.46094,1.83593 1.21094,1.40625 2.42187,3.86719 l 4.00391,7.96875 -4.23828,0 -3.73047,-7.48047 q -1.44531,-2.92968 -2.8125,-3.88672 -1.34766,-0.95703 -3.69141,-0.95703 l -4.29687,0 0,12.32422 -3.94531,0 0,-29.16015 8.90625,0 q 5,0 7.46093,2.08984 2.46094,2.08984 2.46094,6.30859 0,2.75391 -1.28906,4.57032 -1.26953,1.8164 -3.71094,2.51953 z m -9.88281,-12.2461 0,10.35157 4.96094,0 q 2.85156,0 4.29687,-1.3086 1.46485,-1.32812 1.46485,-3.88672 0,-2.55859 -1.46485,-3.84765 -1.44531,-1.3086 -4.29687,-1.3086 l -4.96094,0 z"
           inkscape:connector-curvature="0" />
        <path
           id="path6061"
           d="m 454.97168,438.34262 0,22.67578 4.76562,0 q 6.03516,0 8.82813,-2.73437 2.8125,-2.73438 2.8125,-8.63281 0,-5.85938 -2.8125,-8.57422 -2.79297,-2.73438 -8.82813,-2.73438 l -4.76562,0 z m -3.94531,-3.24218 8.10547,0 q 8.47656,0 12.4414,3.53515 3.96485,3.51563 3.96485,11.01563 0,7.53906 -3.98438,11.07422 -3.98437,3.53515 -12.42187,3.53515 l -8.10547,0 0,-29.16015 z"
           inkscape:connector-curvature="0" />
        <path
           id="path6063"
           d="m 499.28809,436.05747 0,3.84765 q -2.2461,-1.07422 -4.23829,-1.60156 -1.99218,-0.52734 -3.84765,-0.52734 -3.22266,0 -4.98047,1.25 -1.73828,1.25 -1.73828,3.55468 0,1.9336 1.15234,2.92969 1.17188,0.97656 4.41406,1.58203 l 2.38282,0.48828 q 4.41406,0.83985 6.5039,2.96875 2.10938,2.10938 2.10938,5.66407 0,4.23828 -2.85156,6.42578 -2.83204,2.1875 -8.32032,2.1875 -2.07031,0 -4.41406,-0.46875 -2.32422,-0.46875 -4.82422,-1.38672 l 0,-4.0625 q 2.40235,1.34766 4.70703,2.03125 2.30469,0.68359 4.53125,0.68359 3.37891,0 5.21485,-1.32812 1.83593,-1.32813 1.83593,-3.78906 0,-2.14844 -1.32812,-3.35938 -1.30859,-1.21094 -4.31641,-1.81641 l -2.40234,-0.46875 q -4.41406,-0.8789 -6.38672,-2.7539 -1.97266,-1.875 -1.97266,-5.21485 0,-3.86718 2.71485,-6.09375 2.73437,-2.22656 7.51953,-2.22656 2.05078,0 4.17969,0.3711 2.1289,0.37109 4.35547,1.11328 z"
           inkscape:connector-curvature="0" />
      </g>
      <text
         xml:space="preserve"
         style="font-style:normal;font-weight:normal;font-size:40px;line-height:125%;font-family:sans-serif;letter-spacing:0px;word-spacing:0px;fill:#000000;fill-opacity:1;stroke:none;stroke-width:1px;stroke-linecap:butt;stroke-linejoin:miter;stroke-opacity:1"
         x="366.67322"
         y="422.57812"
         id="text3379"
         sodipodi:linespacing="125%"
         transform="matrix(0.97983235,0.19982131,-0.19982131,0.97983235,0,0)"><tspan
           sodipodi:role="line"
           id="tspan3381"
           x="366.67322"
           y="422.57812" /></text>
    </g>
  </g>
</svg>
